#!OML:ASF F:\VICON\USERDATA\INSTALL\rory3\rory3.ASF
:FULLY-SPECIFIED
:DEGREES
90
root 0.646773315950101 17.778569942838125 40.06831456251261 -3.140939156615832 -5.598089449413978 -2.2936653765621315
lfemur -17.208983016586267 -2.588521282695735 -19.252239838599607
ltibia 29.897415733718386
lfoot -5.012751840190856 -0.5182425716372716
ltoes 2.0867773533620046
rfemur -0.28857286915594393 3.0873583325205116 25.583995462276725
rtibia 56.66840458454559
rfoot 9.96993216898338 0.08114448036627842
rtoes 7.103806213821712
lowerback 9.382738470513303 2.892083227414211 2.9847879760339886
upperback 0.4396771561481393 4.161227748714399 0.7131487632914083
thorax -4.721866634095792 2.0081092171994377 -1.061726933539434
lowerneck -16.231924480792223 -2.9968892530389546 -1.9404038491236348
upperneck 20.561921249198345 -3.9645066568179113 1.6121800121976544
head 9.226825722182554 -1.8497127855467834 0.35744172947865693
lclavicle -1.0515454880512975e-15 1.7357912686170518e-15
lhumerus -37.29787424075615 10.2988085017408 79.81433113082537
lradius 18.038591963744953
lwrist 0.8072522168558551
lhand -26.5659989278028 23.67314735730267
lfingers 7.12502
lthumb -0.0008322216467999688 53.634485641881
rclavicle -1.0515454880512975e-15 1.7357912686170518e-15
rhumerus -25.713700840983343 -14.668596445423534 -81.17249540112955
rradius 28.4964846312117
rwrist 4.58142939181656
rhand -17.65572981331394 23.653433152660334
rfingers 7.12502
rthumb 8.60253286084041 -6.155131425465081
91
root 0.6806718262922276 17.820430917029594 40.051866550312596 -3.5547737772303556 -5.712687381801103 -1.3872840241445008
lfemur -14.912240738778713 -2.7466907168957286 -21.04854874125658
ltibia 29.4818852608852
lfoot -6.80383454179651 0.34088091925214714
ltoes 2.2000948816695662
rfemur -5.6900249809081895 2.0660926031986198 23.81922125112225
rtibia 62.77167368035748
rfoot 9.963154686228304 -2.6522060102487335
rtoes 9.636030305771158
lowerback 9.636708965619352 2.654392018174951 1.8652630447472403
upperback 0.5477816836643887 3.7287597153486822 0.5408817687457717
thorax -4.801570982939627 1.8145762682481623 -0.6887368548958027
lowerneck -16.26536625997331 -2.899621449618925 -2.0230991148427004
upperneck 20.500250680058244 -3.8144348968954462 1.515468124808249
head 9.204801907695412 -1.7884677283227186 0.3647663113355691
lclavicle -1.484652435403388e-15 1.3378455447798207e-15
lhumerus -36.44038293667657 8.911989261001734 80.44196433991168
lradius 18.726705433061163
lwrist 2.1740202684872387
lhand -27.589457295049556 22.660739377760667
lfingers 7.12502
lthumb -0.9892973148412569 52.61584159289712
rclavicle -1.484652435403388e-15 1.3378455447798207e-15
rhumerus -26.202610702797326 -15.498077772513444 -81.17283979232957
rradius 27.84398938056211
rwrist 5.466719995017911
rhand -17.456884967810126 23.253722859906734
rfingers 7.12502
rthumb 8.794443278214763 -6.545895691554568
92
root 0.6990910914668225 17.8478951255244 40.423376435250546 -3.8696194609745396 -5.591368304286062 -0.6977416858193641
lfemur -12.542732415573898 -3.0059921106726266 -22.556316048538214
ltibia 28.701428277083316
lfoot -8.623591801866077 1.1551215529781043
ltoes 2.08813362058429
rfemur -11.014343894126984 1.0309917726328854 22.62453310603442
rtibia 66.93838784994989
rfoot 6.3470857422568 -5.008427114291798
rtoes 10.1365192748637
lowerback 9.820852268271858 2.2879971038978684 0.9139812341871938
upperback 0.6601559224645954 3.140893554139599 0.46499104148308334
thorax -4.840636266735264 1.5430383526130602 -0.28085417510987865
lowerneck -16.246143527908043 -2.8015945298302936 -2.149631563122346
upperneck 20.464431549406957 -3.6584969832446155 1.4328342882768486
head 9.184396434981387 -1.7259320897021395 0.384261458014859
lclavicle -1.8826823630182947e-15 9.719590056604072e-16
lhumerus -35.189863298193494 7.376531585557404 81.0278780374367
lradius 19.308252001659195
lwrist 3.00828186768441
lhand -28.419542127839 21.51150940343034
lfingers 7.12502
lthumb -1.7910095830496708 51.46378774251058
rclavicle -1.8826823630182947e-15 9.719590056604072e-16
rhumerus -26.62908647414901 -16.290616123961083 -81.15057601445695
rradius 27.216731116233415
rwrist 6.204200594470685
rhand -17.281135306683364 22.825644941170385
rfingers 7.12502
rthumb 8.964053864163734 -6.965332281540445
93
root 0.7153670099382133 17.86420113233213 41.46393607993885 -4.013150303632915 -5.086932450762438 -0.09465666273249695
lfemur -9.832711584105695 -3.254591453539451 -23.59250458346563
ltibia 28.488724845472962
lfoot -10.138540349713008 1.9439036008030108
ltoes 2.012950499074558
rfemur -15.575886671469577 0.19265146911500963 22.140970412318307
rtibia 69.01916037572946
rfoot 1.4052155651974996 -6.09784949384955
rtoes 9.27796438659397
lowerback 9.977283521672234 1.8648664007127875 0.26204934308704986
upperback 0.7596087390845667 2.5067983996006338 0.5061273526035517
thorax -4.850520774107225 1.2439244045868778 0.21526720979989267
lowerneck -16.181896467619225 -2.726148590963013 -2.316783723693124
upperneck 20.491347238542545 -3.5293019612734127 1.421967243649159
head 9.184549534788182 -1.675634368154662 0.42810710747379765
lclavicle -1.7412696283852576e-15 1.1025142539660032e-15
lhumerus -33.42554885326629 5.805258148569783 81.56054128009235
lradius 20.006854976436067
lwrist 3.4376571528735873
lhand -28.726586707273164 20.895376052583444
lfingers 7.12502
lthumb -2.087573449698628 50.84917267594285
rclavicle -1.7412696283852578e-15 1.102514253966003e-15
rhumerus -27.007493891968753 -16.75240347114487 -81.02226318782886
rradius 26.85878227767321
rwrist 6.604308904907024
rhand -17.112721216638374 22.51694433592926
rfingers 7.12502
rthumb 9.126570163860508 -7.26671781858553
94
root 0.7218876531926457 17.863505180793954 42.33516367573047 -3.9988710632786244 -4.389964575206365 0.41743712256735277
lfemur -7.3233241369212 -3.509028427392643 -24.522833897279085
ltibia 28.094969611471527
lfoot -11.622182254249251 2.5838687958923945
ltoes 1.902955011638746
rfemur -19.713758153902198 -0.41788962907194627 21.837962675042256
rtibia 68.22345842316018
rfoot -3.2297168150167677 -6.413518868619088
rtoes 7.542199136784287
lowerback 10.099985962341925 1.3894426079404743 -0.33816078038672526
upperback 0.8251866050799239 1.8101539833532232 0.5876656419295592
thorax -4.857249226625613 0.9125433259086777 0.7149778242973206
lowerneck -16.14780329144043 -2.691229468792316 -2.5511778389902453
upperneck 20.52290209823342 -3.454579960688783 1.4730153372009016
head 9.19060397159862 -1.6481992942917356 0.49049444023208055
lclavicle -1.6606048017089596e-15 1.1768702225272957e-15
lhumerus -31.471372823268705 3.9884200048970735 81.99964701517773
lradius 20.840818704619405
lwrist 3.772065903757186
lhand -28.66343197706347 20.818383489168667
lfingers 7.12502
lthumb -2.0265918219954764 50.77696537655417
rclavicle -1.6606048017089596e-15 1.1768702225272957e-15
rhumerus -27.453184800905927 -16.873536586819146 -80.95189863701854
rradius 26.747213285406303
rwrist 6.41458252346622
rhand -16.996789501528067 22.271511979992315
rfingers 7.12502
rthumb 9.23842753767953 -7.506561138726426
95
root 0.7150405849454436 17.850703236127742 42.96082701991341 -3.830001220625074 -3.6103947807399877 0.8657049728943926
lfemur -4.999976435999148 -3.6693445391012043 -25.331406351731165
ltibia 27.33043771714248
lfoot -12.859340035652679 2.959982831658297
ltoes 1.7816143249759056
rfemur -23.172449924078904 -0.7143340706174914 21.558545740135017
rtibia 64.56931421448016
rfoot -6.612168568479347 -6.745458034519102
rtoes 5.5125256894628665
lowerback 10.176188803601713 0.915514184772431 -0.959850875181721
upperback 0.8614210149961837 1.1146362429423773 0.6790394939652442
thorax -4.854891651084918 0.581586148408126 1.2153258851275006
lowerneck -16.17384302539079 -2.696126157479163 -2.8267892324894057
upperneck 20.511402830223364 -3.4390464149297535 1.592159888531517
head 9.190960222935331 -1.6434178600292049 0.569219380828181
lclavicle -1.6704633038546944e-15 1.1677599618754141e-15
lhumerus -29.427856437557384 2.025978735067154 82.32052530949167
lradius 21.82711404247227
lwrist 4.2390549520685905
lhand -28.43798553746804 21.029221795324126
lfingers 7.12502
lthumb -1.8088611820442317 50.99372158098301
rclavicle -1.6704633038546944e-15 1.1677599618754141e-15
rhumerus -27.93752524319313 -16.690907444796967 -80.94388419027607
rradius 26.819278057569576
rwrist 5.852838422215906
rhand -16.928587203107504 22.1667117804366
rfingers 7.12502
rthumb 9.304219733454374 -7.607603224714161
96
root 0.6941092369493345 17.831231937637597 43.447508999717144 -3.5206239407361704 -2.8503548678542217 1.3023899881147032
lfemur -2.6627974547722513 -3.656254879552668 -26.114027338835374
ltibia 25.74108150043117
lfoot -13.848237490769794 3.0313798019011893
ltoes 1.5849579454473202
rfemur -25.88560870587697 -0.5620490895300101 21.016551831181182
rtibia 58.150792867612495
rfoot -8.550134599613406 -7.832461740845373
rtoes 3.606352643838744
lowerback 10.170438470628007 0.46921419819101284 -1.6621401926968653
upperback 0.8697493162952112 0.4495136902048599 0.7491968174156252
thorax -4.83002766793835 0.2661775812537467 1.7029312755228583
lowerneck -16.254600891585362 -2.7240409789356663 -3.0984523616801427
upperneck 20.44722510574755 -3.4615146452078442 1.7460736539246198
head 9.180228880400918 -1.6520584281222623 0.6516238463868267
lclavicle -1.8149776431605328e-15 1.0346927042600277e-15
lhumerus -27.3713791053477 0.06215498776885664 82.49122051467157
lradius 22.96020050040091
lwrist 4.948300472689389
lhand -28.21435478090858 21.31806674957621
lfingers 7.12502
lthumb -1.59288664097899 51.28751895235964
rclavicle -1.8149776431605328e-15 1.0346927042600277e-15
rhumerus -28.43279646879718 -16.38929347638214 -80.98133609712501
rradius 26.916188290719766
rwrist 5.247644981616261
rhand -16.86998580885346 22.20490512331236
rfingers 7.12502
rthumb 9.360748810022688 -7.56581152386443
97
root 0.6615634204055887 17.811284230583794 44.04846924173973 -3.070710905795591 -2.1030944208184947 1.7268979981022765
lfemur -0.053291063194754074 -3.4594275123971454 -26.694070467554806
ltibia 23.4115775936774
lfoot -14.398650592856757 2.809345357478433
ltoes 1.1870709641665518
rfemur -27.542319131604714 0.23115873515256613 20.219654528157115
rtibia 49.464356533068404
rfoot -9.315130800633142 -9.83044242708381
rtoes 2.088717510142241
lowerback 10.060627301280824 0.07835198267356291 -2.361789615178054
upperback 0.8472599417619608 -0.13971492525216678 0.8080366666124592
thorax -4.774100358596086 -0.012504501505458232 2.1809811863303485
lowerneck -16.355691428154266 -2.7531562350227583 -3.305804588461692
upperneck 20.36150466450252 -3.4935254368447786 1.9112059187837298
head 9.165301153402202 -1.662405025329475 0.7266565345063898
lclavicle -1.912852303149531e-15 9.44695697454077e-16
lhumerus -25.312782034955692 -1.7091952520662443 82.51857087441105
lradius 24.22473944089981
lwrist 5.81027801487424
lhand -28.028272112346762 21.68552150101811
lfingers 7.12502
lthumb -1.413189544024878 51.65775565637061
rclavicle -1.912852303149531e-15 9.44695697454077e-16
rhumerus -28.889538406502734 -16.145788415877696 -80.98008415978605
rradius 26.90513392966083
rwrist 4.889640864094326
rhand -16.785022077246815 22.43293274908009
rfingers 7.12502
rthumb 9.44272403488731 -7.333258506247116
